<?xml version="1.0" encoding="utf-8"?>
<?xml-stylesheet type="text/xsl" href="rss1.xsl"?>
<rss version="2.0" xmlns:atom="http://www.w3.org/2005/Atom" xmlns:content="http://purl.org/rss/1.0/modules/content/" xmlns:dc="http://purl.org/dc/elements/1.1/" xmlns:media="http://search.yahoo.com/mrss/">
<channel>
 <title>Getty</title>
 <link>http://www.gettyimg.com/</link>
 <atom:link href="http://www.gettyimg.com/" rel="self" type="application/rss+xml" />

 
                <item>
                <title><![CDATA[【Cinema Center】MOVIE - White.Chicks.2004.1080p.HMAX.WEB-DL.DD5.1.x264-Samuel]]></title>
                <link><![CDATA[https://sharemania.us/threads/white-chicks-2004-1080p-hmax-web-dl-dd5-1-x264-samuel.219607/]]></link>
                <description><![CDATA[<article>
<blockquote class="messageText SelectQuoteContainer ugc baseHtml">
<div style="text-align: center"><b><span style="font-size: 26px">White Chicks</span></b><br>
<a href="https://i.imgur.com/nLHNTYs.jpg" target="_blank" class="externalLink" rel="nofollow"><img src="https://i.imgur.com/sIQwdUg.jpg" class="bbCodeImage LbImage" alt="[​IMG]" data-url="https://i.imgur.com/sIQwdUg.jpg"></a><br>
<br>
1 HR 48 MIN • PG-13 • 2004 • HD • 5.1 • COMEDY • CRIME<br>
<br>
<div class="bbCodeBlock bbCodeQuote">
<aside>
<blockquote class="quoteContainer"><div class="quote"><b><span style="font-size: 15px"><span style="font-family: 'Arial'">Description</span></span></b><br>
Two disgraced FBI agents disguise themselves as spoiled socialite sisters to foil a kidnapping plot in this outrageous farce.</div><div class="quoteExpand">Click to expand...</div></blockquote>
</aside>
</div>
<div class="bbCodeBlock bbCodeQuote">
<aside>
<blockquote class="quoteContainer"><div class="quote"><span style="font-family: 'Arial'"><span style="font-size: 15px"><b>Trailers &amp; Clips</b></span></span><br>
<div data-s9e-mediaembed="googledrive" style="display:inline-block;width:100%;max-width:640px"><div style="overflow:hidden;position:relative;padding-bottom:75%"><iframe allowfullscreen="" scrolling="no" src="//drive.google.com/file/d/1Ja3xVAvj0ya2cdx32VhLUKwP9bjShy_2/preview" style="border:0;height:100%;left:0;position:absolute;width:100%"></iframe></div></div></div><div class="quoteExpand quoteCut">Click to expand...</div></blockquote>
</aside>
</div>
<div class="bbCodeBlock bbCodeQuote">
<aside>
<blockquote class="quoteContainer"><div class="quote"><span style="font-family: 'Arial'"><span style="font-size: 15px"><b>Accessibility</b></span></span><br>
<b>Audio languages:</b> English (United States), Spanish (Latin American)<br>
<b>Subtitles:</b> English US (SDH), Spanish (Latin American) (CC)</div><div class="quoteExpand">Click to expand...</div></blockquote>
</aside>
</div>
<div class="bbCodeBlock bbCodeQuote">
<aside>
<blockquote class="quoteContainer"><div class="quote"><span style="font-family: 'Arial'"><span style="font-size: 15px"><b>More Information</b></span></span><br>
<b><i><span style="text-decoration: underline">Genres</span></i></b><br>
Comedy, Crime, Teen<br>
<br>
<b><i><span style="text-decoration: underline">Runtime</span></i></b><br>
1 hr 48 min<br>
<br>
<b><i><span style="text-decoration: underline">About This Movie</span></i></b><br>
Two disgraced FBI agents disguise themselves as spoiled socialite sisters to foil a kidnapping plot in this outrageous farce. Starring Shawn Wayans, Marlon Wayans, Jaime King, Frankie Faison, Lochlyn Munro, John Heard. Directed by Keenen Ivory Wayans; screenplay by Keenen Ivory Wayans &amp; Shawn Wayans &amp; Marlon Wayans &amp; Andy McElfresh &amp; Michael Anthony Snowden &amp; Xavier Cook.<br>
<br>
<b><i><span style="text-decoration: underline">Cast &amp; Crew</span></i></b><br>
Kevin • Shawn Wayans<br>
Marcus • Marlon Wayans<br>
Heather • Jaime King<br>
Chief Gordon • Frankie Faison<br>
Agent Harper • Lochlyn Munro<br>
Warren • John Heard<br>
<br>
<b><i><span style="text-decoration: underline">Producers</span></i></b><br>
Producer • Keenen Ivory Wayans<br>
Producer • Shawn Wayans<br>
Producer • Marlon Wayans<br>
Producer • Lee R. Mayes<br>
Producer • Rick Alvarez<br>
<br>
<b><i><span style="text-decoration: underline">Directors</span></i></b><br>
Director • Keenen Ivory Wayans<br>
<br>
<b><i><span style="text-decoration: underline">Writers</span></i></b><br>
Screenplay By • Keenen Ivory Wayans<br>
Screenplay By • Shawn Wayans<br>
Screenplay By • Marlon Wayans<br>
Screenplay By • Andrew McElfresh<br>
Screenplay By • Michael Anthony Snowden<br>
Screenplay By • Xavier Cook<br>
<br>
<b><i><span style="text-decoration: underline">Rating Information</span></i></b><br>
PG-13</div><div class="quoteExpand quoteCut">Click to expand...</div></blockquote>
</aside>
</div>
<div class="bbCodeBlock bbCodeQuote">
<aside>
<blockquote class="quoteContainer"><div class="quote"><b><span style="font-size: 15px"><span style="font-family: 'Arial'">Source</span></span></b><br>
<img src="https://i.imgur.com/kP0bkE8.png" class="bbCodeImage LbImage" alt="[​IMG]" data-url="https://i.imgur.com/kP0bkE8.png" style=""></div><div class="quoteExpand">Click to expand...</div></blockquote>
</aside>
</div>
<div class="bbCodeBlock bbCodeQuote">
<aside>
<blockquote class="quoteContainer"><div class="quote"><b><b><span style="font-size: 15px">Release Name</span></b></b><br>
White.Chicks.2004.1080p.HMAX.WEB-DL.DD5.1.x264-Samuel</div><div class="quoteExpand">Click to expand...</div></blockquote>
</aside>
</div>
<div class="ToggleTriggerAnchor bbCodeSpoilerContainer">
<button type="button" class="button bbCodeSpoilerButton ToggleTrigger Tooltip JsOnly" data-target="> .SpoilerTarget"><span>Spoiler: <span class="SpoilerTitle">Media Information</span></span></button>
<div class="SpoilerTarget bbCodeSpoilerText">General<br>
Complete name : White.Chicks.2004.1080p.HMAX.WEB-DL.DD5.1.x264-Samuel.mkv<br>
Format : Matroska<br>
Format version : Version 4<br>
File size : 6.84 GiB<br>
Duration : 1 h 48 min<br>
Overall bit rate mode : Variable<br>
Overall bit rate : 9 005 kb/s<br>
Frame rate : 23.976 FPS<br>
Encoded date : 2023-04-23 06:19:41 UTC<br>
Writing application : mkvmerge v72.0.0 ('Minuano (Six-eight)') 64-bit<br>
Writing library : libebml v1.4.4 + libmatroska v1.7.1<br>
<br>
Video<br>
ID : 1<br>
Format : AVC<br>
Format/Info : Advanced Video Codec<br>
Format profile : High@L4<br>
Format settings : CABAC / 4 Ref Frames<br>
Format settings, CABAC : Yes<br>
Format settings, Reference frames : 4 frames<br>
Codec ID : V_MPEG4/ISO/AVC<br>
Duration : 1 h 48 min<br>
Bit rate mode : Variable<br>
Bit rate : 8 250 kb/s<br>
Maximum bit rate : 12.4 Mb/s<br>
Width : 1 920 pixels<br>
Height : 1 080 pixels<br>
Display aspect ratio : 16:9<br>
Frame rate mode : Constant<br>
Frame rate : 23.976 (24000/1001) FPS<br>
Color space : YUV<br>
Chroma subsampling : 4:2:0<br>
Bit depth : 8 bits<br>
Scan type : Progressive<br>
Bits/(Pixel*Frame) : 0.166<br>
Stream size : 6.25 GiB (91%)<br>
Writing library : x264 core 157 r2965 861cec4<br>
Encoding settings : cabac=1 / ref=4 / deblock=1:0:0 / analyse=0x3:0x113 / me=hex / subme=7 / psy=1 / psy_rd=1.00:0.00 / mixed_ref=1 / me_range=16 / chroma_me=1 / trellis=1 / 8x8dct=1 / cqm=0 / deadzone=21,11 / fast_pskip=1 / chroma_qp_offset=-2 / threads=34 / lookahead_threads=5 / sliced_threads=0 / nr=0 / decimate=1 / interlaced=0 / bluray_compat=0 / constrained_intra=0 / bframes=3 / b_pyramid=2 / b_adapt=1 / b_bias=0 / direct=1 / weightb=1 / open_gop=0 / weightp=2 / keyint=96 / keyint_min=96 / scenecut=40 / intra_refresh=0 / rc_lookahead=40 / rc=2pass / mbtree=1 / bitrate=8250 / ratetol=1.0 / qcomp=0.60 / qpmin=0 / qpmax=69 / qpstep=4 / cplxblur=20.0 / qblur=0.5 / vbv_maxrate=12375 / vbv_bufsize=6187 / nal_hrd=vbr / filler=0 / ip_ratio=1.40 / aq=1:1.00<br>
Default : Yes<br>
Forced : No<br>
Color range : Limited<br>
Color primaries : BT.709<br>
Transfer characteristics : BT.709<br>
Matrix coefficients : BT.709<br>
<br>
Audio #1<br>
ID : 2<br>
Format : AC-3<br>
Format/Info : Audio Coding 3<br>
Commercial name : Dolby Digital<br>
Codec ID : A_AC3<br>
Duration : 1 h 48 min<br>
Bit rate mode : Constant<br>
Bit rate : 384 kb/s<br>
Channel(s) : 6 channels<br>
Channel layout : L R C LFE Ls Rs<br>
Sampling rate : 48.0 kHz<br>
Frame rate : 31.250 FPS (1536 SPF)<br>
Compression mode : Lossy<br>
Stream size : 299 MiB (4%)<br>
Language : English<br>
Service kind : Complete Main<br>
Default : Yes<br>
Forced : No<br>
<br>
Audio #2<br>
ID : 3<br>
Format : AC-3<br>
Format/Info : Audio Coding 3<br>
Commercial name : Dolby Digital<br>
Codec ID : A_AC3<br>
Duration : 1 h 48 min<br>
Bit rate mode : Constant<br>
Bit rate : 384 kb/s<br>
Channel(s) : 2 channels<br>
Channel layout : L R<br>
Sampling rate : 48.0 kHz<br>
Frame rate : 31.250 FPS (1536 SPF)<br>
Compression mode : Lossy<br>
Stream size : 299 MiB (4%)<br>
Title : Latin American<br>
Language : Spanish<br>
Service kind : Complete Main<br>
Default : No<br>
Forced : No<br>
<br>
Text #1<br>
ID : 4<br>
Format : UTF-8<br>
Codec ID : S_TEXT/UTF8<br>
Codec ID/Info : UTF-8 Plain Text<br>
Duration : 1 h 47 min<br>
Bit rate : 92 b/s<br>
Frame rate : 0.400 FPS<br>
Count of elements : 2572<br>
Stream size : 73.1 KiB (0%)<br>
Title : SDH<br>
Language : English<br>
Default : No<br>
Forced : No<br>
<br>
Text #2<br>
ID : 5<br>
Format : UTF-8<br>
Codec ID : S_TEXT/UTF8<br>
Codec ID/Info : UTF-8 Plain Text<br>
Duration : 1 h 42 min<br>
Bit rate : 84 b/s<br>
Frame rate : 0.330 FPS<br>
Count of elements : 2031<br>
Stream size : 63.1 KiB (0%)<br>
Title : Latin American<br>
Language : Spanish<br>
Default : No<br>
Forced : No</div>
</div><br>
<b>Screenshots</b><br>
<img src="https://i.imgur.com/wCumfiq.png" class="bbCodeImage LbImage" alt="[​IMG]" data-url="https://i.imgur.com/wCumfiq.png" style=""><br>
<br>
<b>Download</b><br>
<div class="bbCodeBlock bbCodeVfcHH HiddenContent">
<div class="attribution type">Hidden Content:</div>
<blockquote>You must reply before you can see the hidden data contained here.</blockquote>
</div></div>
<div class="messageTextEndMarker">&nbsp;</div>
</blockquote>
</article>]]></description>
                <author><![CDATA[Samuel]]></author>
                </item>

                </channel></rss>